# xmcd
# 
# Track frame offsets:
#     150
#     31337
#     39825
#     57975
#     67225
#     79387
#     101012
#     115750
#     142512
#     171387
#     189500
#     194987
#     210200
#     222687
#     240300
#     256750
#     264950
#     275450
#     296312
# 
# Disc length: 4109
# 
# Revision: 4
# Processed by: cddbd v1.5.1PL0 Copyright (c) Steve Scherf et al.
# Submitted via: BonkEnc v1.0beta3
# 
DISCID=17100b13
DTITLE=滾石唱片 - 滾石古典音樂大學導讀
DYEAR=2046
DGENRE=Classical
TTITLE0=貝多芬-第五號交響曲-命運-第一樂章
TTITLE1=理查-史特勞斯-查拉圖斯特拉如是說
TTITLE2=莫札特-費加洛婚禮序曲
TTITLE3=比才-卡門第二組曲-哈巴奈拉舞曲
TTITLE4=柴可夫斯基-天鵝湖-第一幕終曲
TTITLE5=韋瓦第-小提琴協奏曲-四季-秋
TTITLE6=柴可夫斯基-第一號鋼琴協奏曲第一樂章(節選)
TTITLE7=德弗乍克-大提琴協奏曲第一樂章(節選)
TTITLE8=海頓-降E大調小喇叭協奏曲第一樂章
TTITLE9=蕭邦-夜曲第二號
TTITLE10=貝多芬-小提琴奏鳴曲-春-第三樂章
TTITLE11=莫札特-鋼琴奏鳴曲K331-土耳其進行曲
TTITLE12=海頓-弦樂四重奏-皇帝-第二樂章(節選)
TTITLE13=柴可夫斯基-弦樂小夜曲-圓舞曲
TTITLE14=韓德爾-彌賽亞-哈利路亞
TTITLE15=舒伯特-野玫瑰
TTITLE16=威爾第-歌劇-弄臣-善變的女人
TTITLE17=普契尼-歌劇-蝴蝶夫人-美好的一日
TTITLE18=卡爾奧夫-布蘭詩歌-哦!命運
EXTD=YEAR: 2046
EXTT0=
EXTT1=
EXTT2=
EXTT3=
EXTT4=
EXTT5=
EXTT6=
EXTT7=
EXTT8=
EXTT9=
EXTT10=
EXTT11=
EXTT12=
EXTT13=
EXTT14=
EXTT15=
EXTT16=
EXTT17=
EXTT18=
PLAYORDER=
